<svg width="1920" height="869" viewBox="0 0 1920 869" fill="none" xmlns="http://www.w3.org/2000/svg">
<g clip-path="url(#clip0_2006_82)">
<path d="M1992.96 390.148V387.57H1514.67V0H1511.49V387.57H1376.51V0H1373.33V387.57H1238.36V0H1235.18V387.57H1100.21V0H1097.03V387.57H962.055V0H958.874V387.57H823.901V0H820.72V387.57H685.748V0H682.567V387.57H547.595V0H544.414V387.57H409.442V0H406.261V387.57H-72V390.148H406.293V499.519H-72V502.097H406.293V611.467H-72V614.045H406.293V723.416H-72V725.993H406.293V835.364H-72V837.942H406.293V947.312H-72V949.89H406.293V1059.26H-72V1061.84H406.293V1171.21H-72V1173.79H406.293V1283.16H-72V1285.74H406.293V1673.31H409.474V1285.74H544.446V1673.31H547.627V1285.74H682.599V1673.31H685.78V1285.74H820.752V1673.31H823.933V1285.74H958.905V1673.31H962.086V1285.74H1097.06V1673.31H1100.24V1285.74H1235.21V1673.31H1238.39V1285.74H1373.36V1673.31H1376.55V1285.74H1511.52V1673.31H1514.7V1285.74H1992.99V1283.16H1514.7V1173.79H1992.99V1171.21H1514.7V1061.84H1992.99V1059.26H1514.7V949.89H1992.99V947.312H1514.7V837.942H1992.99V835.364H1514.7V725.993H1992.99V723.416H1514.7V614.045H1992.99V611.467H1514.7V502.097H1992.99V499.519H1514.7V390.148H1992.99H1992.96ZM1373.33 390.148V499.519H1238.36V390.148H1373.33ZM958.884 837.924V947.295H823.912V837.924H958.884ZM823.912 835.347V725.976H958.884V835.347H823.912ZM962.065 837.924H1097.04V947.295H962.065V837.924ZM962.065 835.347V725.976H1097.04V835.347H962.065ZM962.065 723.398V614.028H1097.04V723.398H962.065ZM958.884 723.398H823.912V614.028H958.884V723.398ZM820.731 723.398H685.759V614.028H820.731V723.398ZM820.731 725.976V835.347H685.759V725.976H820.731ZM820.731 837.924V947.295H685.759V837.924H820.731ZM820.731 949.873V1059.24H685.759V949.873H820.731ZM823.912 949.873H958.884V1059.24H823.912V949.873ZM962.065 949.873H1097.04V1059.24H962.065V949.873ZM1100.22 949.873H1235.19V1059.24H1100.22V949.873ZM1100.22 947.295V837.924H1235.19V947.295H1100.22ZM1100.22 835.347V725.976H1235.19V835.347H1100.22ZM1100.22 723.398V614.028H1235.19V723.398H1100.22ZM1100.22 611.45V502.079H1235.19V611.45H1100.22ZM1097.04 611.45H962.065V502.079H1097.04V611.45ZM958.884 611.45H823.912V502.079H958.884V611.45ZM820.731 611.45H685.759V502.079H820.731V611.45ZM682.578 611.45H547.606V502.079H682.578V611.45ZM682.578 614.028V723.398H547.606V614.028H682.578ZM682.578 725.976V835.347H547.606V725.976H682.578ZM682.578 837.924V947.295H547.606V837.924H682.578ZM682.578 949.873V1059.24H547.606V949.873H682.578ZM682.578 1061.82V1171.19H547.606V1061.82H682.578ZM685.759 1061.82H820.731V1171.19H685.759V1061.82ZM823.912 1061.82H958.884V1171.19H823.912V1061.82ZM962.065 1061.82H1097.04V1171.19H962.065V1061.82ZM1100.22 1061.82H1235.19V1171.19H1100.22V1061.82ZM1238.37 1061.82H1373.34V1171.19H1238.37V1061.82ZM1238.37 1059.24V949.873H1373.34V1059.24H1238.37ZM1238.37 947.295V837.924H1373.34V947.295H1238.37ZM1238.37 835.347V725.976H1373.34V835.347H1238.37ZM1238.37 723.398V614.028H1373.34V723.398H1238.37ZM1238.37 611.45V502.079H1373.34V611.45H1238.37ZM1235.19 390.14V499.51H1100.22V390.14H1235.19ZM1097.04 390.14V499.51H962.065V390.14H1097.04ZM958.884 390.14V499.51H823.912V390.14H958.884ZM820.731 390.14V499.51H685.759V390.14H820.731ZM682.578 390.14V499.51H547.606V390.14H682.578ZM409.463 390.14H544.435V499.51H409.463V390.14ZM409.463 502.088H544.435V611.459H409.463V502.088ZM409.463 614.036H544.435V723.407H409.463V614.036ZM409.463 725.985H544.435V835.355H409.463V725.985ZM409.463 837.933H544.435V947.304H409.463V837.933ZM409.463 949.881H544.435V1059.25H409.463V949.881ZM409.463 1061.83H544.435V1171.2H409.463V1061.83ZM409.463 1283.14V1173.77H544.435V1283.14H409.463ZM547.616 1283.14V1173.77H682.588V1283.14H547.616ZM685.769 1283.14V1173.77H820.742V1283.14H685.769ZM823.923 1283.14V1173.77H958.895V1283.14H823.923ZM962.076 1283.14V1173.77H1097.05V1283.14H962.076ZM1100.23 1283.14V1173.77H1235.2V1283.14H1100.23ZM1238.38 1283.14V1173.77H1373.35V1283.14H1238.38ZM1511.5 1283.14H1376.52V1173.77H1511.5V1283.14ZM1511.5 1171.19H1376.52V1061.82H1511.5V1171.19ZM1511.5 1059.24H1376.52V949.873H1511.5V1059.24ZM1511.5 947.295H1376.52V837.924H1511.5V947.295ZM1511.5 835.347H1376.52V725.976H1511.5V835.347ZM1511.5 723.398H1376.52V614.028H1511.5V723.398ZM1511.5 611.45H1376.52V502.079H1511.5V611.45ZM1511.5 499.502H1376.52V390.131H1511.5V499.502Z" fill="url(#paint0_radial_2006_82)"/>
<path d="M250.225 340.8H248.016C248.016 315.165 227.235 294.385 201.601 294.385V292.175C227.235 292.175 248.016 271.395 248.016 245.76H250.225C250.225 271.395 271.006 292.175 296.641 292.175V294.385C271.006 294.385 250.225 315.165 250.225 340.8Z" fill="#D794FF"/>
<path d="M1718.06 669.118H1715.86C1715.86 643.483 1695.07 622.703 1669.44 622.703V620.493C1695.07 620.493 1715.86 599.713 1715.86 574.078H1718.06C1718.06 599.713 1738.85 620.493 1764.48 620.493V622.703C1738.85 622.703 1718.06 643.483 1718.06 669.118Z" fill="#D794FF"/>
</g>
<defs>
<radialGradient id="paint0_radial_2006_82" cx="0" cy="0" r="1" gradientUnits="userSpaceOnUse" gradientTransform="translate(960.475 836.636) scale(1032.47 836.636)">
<stop stop-color="#24103B" stop-opacity="0"/>
<stop offset="0.06" stop-color="#2E1746" stop-opacity="0.06"/>
<stop offset="0.18" stop-color="#492B64" stop-opacity="0.21"/>
<stop offset="0.34" stop-color="#754C94" stop-opacity="0.46"/>
<stop offset="0.53" stop-color="#B178D5" stop-opacity="0.79"/>
<stop offset="0.65" stop-color="#D794FF"/>
<stop offset="0.71" stop-color="#A46EC7" stop-opacity="0.75"/>
<stop offset="0.77" stop-color="#774D96" stop-opacity="0.52"/>
<stop offset="0.82" stop-color="#51316D" stop-opacity="0.34"/>
<stop offset="0.87" stop-color="#341C4D" stop-opacity="0.19"/>
<stop offset="0.92" stop-color="#1F0C36" stop-opacity="0.09"/>
<stop offset="0.97" stop-color="#120328" stop-opacity="0.02"/>
<stop offset="1" stop-color="#0E0024" stop-opacity="0"/>
</radialGradient>
<clipPath id="clip0_2006_82">
<rect width="2064.96" height="1673.28" fill="white" transform="translate(-72)"/>
</clipPath>
</defs>
</svg>
